<?xml version="1.0" encoding="iso-8859-1"?>
<!-- Uploaded to: SVG Repo, www.svgrepo.com, Generator: SVG Repo Mixer Tools -->
<svg height="800px" width="800px" version="1.1" id="Layer_1" xmlns="http://www.w3.org/2000/svg" xmlns:xlink="http://www.w3.org/1999/xlink" 
	 viewBox="0 0 512 512" xml:space="preserve">
<g transform="translate(1 1)">
	<polygon style="fill:#FFFFFF;" points="24.6,58.733 485.4,58.733 485.4,417.133 24.6,417.133 	"/>
	<path style="fill:#0096E6;" d="M493.933,425.667H16.067V50.2h477.867V425.667z M33.133,408.6h443.733V67.267H33.133V408.6z"/>
	<polygon style="fill:#D0E8F9;" points="7.533,7.533 502.467,7.533 502.467,58.733 7.533,58.733 	"/>
	<g>
		<path style="fill:#0096E6;" d="M511,67.267H-1V-1h512V67.267z M16.067,50.2h477.867V16.067H16.067V50.2z"/>
		<path style="fill:#0096E6;" d="M255,451.267c-5.12,0-8.533-3.413-8.533-8.533v-25.6c0-5.12,3.413-8.533,8.533-8.533
			s8.533,3.413,8.533,8.533v25.6C263.533,447.853,260.12,451.267,255,451.267z"/>
	</g>
	<path style="fill:#D0E8F9;" d="M280.6,476.867c0,14.507-11.093,25.6-25.6,25.6c-14.507,0-25.6-11.093-25.6-25.6
		c0-14.507,11.093-25.6,25.6-25.6C269.507,451.267,280.6,462.36,280.6,476.867L280.6,476.867z"/>
	<g>
		<path style="fill:#0096E6;" d="M255,511c-18.773,0-34.133-15.36-34.133-34.133s15.36-34.133,34.133-34.133
			s34.133,15.36,34.133,34.133S273.773,511,255,511z M255,459.8c-9.387,0-17.067,7.68-17.067,17.067s7.68,17.067,17.067,17.067
			s17.067-7.68,17.067-17.067S264.387,459.8,255,459.8z"/>
		<path style="fill:#0096E6;" d="M442.733,357.4H67.267v-17.067h25.6V203.8h68.267v136.533h34.133v-102.4h51.2v-51.2h51.2V127
			h68.267v25.6h51.2v187.733h25.6V357.4z M365.933,340.333h34.133V169.667h-34.133V340.333z M314.733,340.333h34.133V144.067
			h-34.133V340.333z M263.533,340.333h34.133V203.8h-34.133V340.333z M212.333,340.333h34.133V255h-34.133V340.333z
			 M109.933,340.333h34.133V220.867h-34.133V340.333z"/>
	</g>
	<polygon style="fill:#D0E8F9;" points="152.6,161.133 203.8,161.133 203.8,348.867 152.6,348.867 	"/>
	<g>
		<path style="fill:#0096E6;" d="M212.333,357.4h-68.267V152.6h68.267V357.4z M161.133,340.333h34.133V169.667h-34.133V340.333z"/>
		<path style="fill:#0096E6;" d="M152.6,169.667c0,5.12,3.413,8.533,8.533,8.533c5.12,0,8.533-3.413,8.533-8.533
			c0-5.12-3.413-8.533-8.533-8.533C156.013,161.133,152.6,164.547,152.6,169.667"/>
		<path style="fill:#0096E6;" d="M502.467,425.667H7.533c-5.12,0-8.533-3.413-8.533-8.533s3.413-8.533,8.533-8.533h494.933
			c5.12,0,8.533,3.413,8.533,8.533S507.587,425.667,502.467,425.667z"/>
		<path style="fill:#0096E6;" d="M186.733,169.667c0,5.12,3.413,8.533,8.533,8.533c5.12,0,8.533-3.413,8.533-8.533
			c0-5.12-3.413-8.533-8.533-8.533C190.147,161.133,186.733,164.547,186.733,169.667"/>
		<path style="fill:#0096E6;" d="M169.667,186.733c0,5.12,3.413,8.533,8.533,8.533c5.12,0,8.533-3.413,8.533-8.533
			c0-5.12-3.413-8.533-8.533-8.533C173.08,178.2,169.667,181.613,169.667,186.733"/>
		<path style="fill:#0096E6;" d="M152.6,203.8c0,5.12,3.413,8.533,8.533,8.533c5.12,0,8.533-3.413,8.533-8.533
			c0-5.12-3.413-8.533-8.533-8.533C156.013,195.267,152.6,198.68,152.6,203.8"/>
		<path style="fill:#0096E6;" d="M186.733,203.8c0,5.12,3.413,8.533,8.533,8.533c5.12,0,8.533-3.413,8.533-8.533
			c0-5.12-3.413-8.533-8.533-8.533C190.147,195.267,186.733,198.68,186.733,203.8"/>
		<path style="fill:#0096E6;" d="M169.667,220.867c0,5.12,3.413,8.533,8.533,8.533c5.12,0,8.533-3.413,8.533-8.533
			c0-5.12-3.413-8.533-8.533-8.533C173.08,212.333,169.667,215.747,169.667,220.867"/>
		<path style="fill:#0096E6;" d="M152.6,237.933c0,5.12,3.413,8.533,8.533,8.533c5.12,0,8.533-3.413,8.533-8.533
			c0-5.12-3.413-8.533-8.533-8.533C156.013,229.4,152.6,232.813,152.6,237.933"/>
		<path style="fill:#0096E6;" d="M186.733,237.933c0,5.12,3.413,8.533,8.533,8.533c5.12,0,8.533-3.413,8.533-8.533
			c0-5.12-3.413-8.533-8.533-8.533C190.147,229.4,186.733,232.813,186.733,237.933"/>
		<path style="fill:#0096E6;" d="M169.667,255c0,5.12,3.413,8.533,8.533,8.533c5.12,0,8.533-3.413,8.533-8.533
			s-3.413-8.533-8.533-8.533C173.08,246.467,169.667,249.88,169.667,255"/>
		<path style="fill:#0096E6;" d="M152.6,272.067c0,5.12,3.413,8.533,8.533,8.533c5.12,0,8.533-3.413,8.533-8.533
			s-3.413-8.533-8.533-8.533C156.013,263.533,152.6,266.947,152.6,272.067"/>
		<path style="fill:#0096E6;" d="M186.733,272.067c0,5.12,3.413,8.533,8.533,8.533c5.12,0,8.533-3.413,8.533-8.533
			s-3.413-8.533-8.533-8.533C190.147,263.533,186.733,266.947,186.733,272.067"/>
		<path style="fill:#0096E6;" d="M169.667,289.133c0,5.12,3.413,8.533,8.533,8.533c5.12,0,8.533-3.413,8.533-8.533
			c0-5.12-3.413-8.533-8.533-8.533C173.08,280.6,169.667,284.013,169.667,289.133"/>
		<path style="fill:#0096E6;" d="M152.6,306.2c0,5.12,3.413,8.533,8.533,8.533c5.12,0,8.533-3.413,8.533-8.533
			s-3.413-8.533-8.533-8.533C156.013,297.667,152.6,301.08,152.6,306.2"/>
		<path style="fill:#0096E6;" d="M186.733,306.2c0,5.12,3.413,8.533,8.533,8.533c5.12,0,8.533-3.413,8.533-8.533
			s-3.413-8.533-8.533-8.533C190.147,297.667,186.733,301.08,186.733,306.2"/>
		<path style="fill:#0096E6;" d="M152.6,340.333c0,5.12,3.413,8.533,8.533,8.533c5.12,0,8.533-3.413,8.533-8.533
			c0-5.12-3.413-8.533-8.533-8.533C156.013,331.8,152.6,335.213,152.6,340.333"/>
		<path style="fill:#0096E6;" d="M186.733,340.333c0,5.12,3.413,8.533,8.533,8.533c5.12,0,8.533-3.413,8.533-8.533
			c0-5.12-3.413-8.533-8.533-8.533C190.147,331.8,186.733,335.213,186.733,340.333"/>
		<path style="fill:#0096E6;" d="M169.667,323.267c0,5.12,3.413,8.533,8.533,8.533c5.12,0,8.533-3.413,8.533-8.533
			c0-5.12-3.413-8.533-8.533-8.533C173.08,314.733,169.667,318.147,169.667,323.267"/>
	</g>
</g>
</svg>